<svg xmlns="http://www.w3.org/2000/svg" width="185" height="30" viewBox="0 0 185 30">
  <g fill="none" fill-rule="evenodd">
    <path fill="#4990E2" d="M12.78,11.14 C12.5399988,10.5999973 12.1250029,10.1550018 11.535,9.805 C10.944997,9.45499825 10.2700038,9.28 9.51,9.28 C8.6099955,9.28 7.7800038,9.4599982 7.02,9.82 C6.2599962,10.1800018 5.60500275,10.6749969 5.055,11.305 C4.50499725,11.9350032 4.07500155,12.6649959 3.765,13.495 C3.45499845,14.3250042 3.3,15.2099953 3.3,16.15 C3.3,16.7900032 3.399999,17.3849973 3.6,17.935 C3.800001,18.4850028 4.09499805,18.959998 4.485,19.36 C4.87500195,19.760002 5.3499972,20.0749989 5.91,20.305 C6.4700028,20.5350012 7.1099964,20.65 7.83,20.65 C8.7300045,20.65 9.5199966,20.4800017 10.2,20.14 C10.8800034,19.7999983 11.4699975,19.3600027 11.97,18.82 L13.26,19.93 C12.5399964,20.6700037 11.7300045,21.2599978 10.83,21.7 C9.9299955,22.1400022 8.880006,22.36 7.68,22.36 C6.679995,22.36 5.780004,22.2150015 4.98,21.925 C4.179996,21.6349986 3.49500285,21.2250027 2.925,20.695 C2.35499715,20.1649974 1.9200015,19.5300037 1.62,18.79 C1.3199985,18.0499963 1.17,17.2300045 1.17,16.33 C1.17,15.129994 1.369998,14.0000053 1.77,12.94 C2.170002,11.8799947 2.73499635,10.955004 3.465,10.165 C4.19500365,9.37499605 5.0799948,8.7500023 6.12,8.29 C7.1600052,7.8299977 8.3099937,7.6 9.57,7.6 C10.6100052,7.6 11.5849954,7.7899981 12.495,8.17 C13.4050045,8.5500019 14.0899977,9.1499959 14.55,9.97 L12.78,11.14 Z M21.2,22.36 C20.2599953,22.36 19.390004,22.2100015 18.59,21.91 C17.789996,21.6099985 17.1050029,21.1950027 16.535,20.665 C15.9649972,20.1349974 15.5200016,19.4950038 15.2,18.745 C14.8799984,17.9949963 14.72,17.1700045 14.72,16.27 C14.72,15.0899941 14.924998,13.9750053 15.335,12.925 C15.7450021,11.8749948 16.3199963,10.955004 17.06,10.165 C17.8000037,9.37499605 18.6799949,8.7500023 19.7,8.29 C20.7200051,7.8299977 21.8399939,7.6 23.06,7.6 C24.0200048,7.6 24.8949961,7.74499855 25.685,8.035 C26.475004,8.32500145 27.1549972,8.7399973 27.725,9.28 C28.2950029,9.8200027 28.7399984,10.4599963 29.06,11.2 C29.3800016,11.9400037 29.54,12.7599955 29.54,13.66 C29.54,14.860006 29.3350021,15.9899947 28.925,17.05 C28.514998,18.1100053 27.9400037,19.0299961 27.2,19.81 C26.4599963,20.5900039 25.5800051,21.2099977 24.56,21.67 C23.5399949,22.1300023 22.4200061,22.36 21.2,22.36 L21.2,22.36 Z M27.44,13.78 C27.44,13.1399968 27.340001,12.5450027 27.14,11.995 C26.939999,11.4449972 26.6450019,10.970002 26.255,10.57 C25.864998,10.169998 25.3900028,9.85500115 24.83,9.625 C24.2699972,9.39499885 23.6400035,9.28 22.94,9.28 C22.0599956,9.28 21.2500037,9.46499815 20.51,9.835 C19.7699963,10.2050018 19.1300027,10.7049968 18.59,11.335 C18.0499973,11.9650031 17.6250015,12.6949958 17.315,13.525 C17.0049984,14.3550041 16.85,15.2299954 16.85,16.15 C16.85,16.7900032 16.949999,17.3849972 17.15,17.935 C17.350001,18.4850027 17.644998,18.959998 18.035,19.36 C18.4250019,19.760002 18.8949972,20.0749988 19.445,20.305 C19.9950027,20.5350011 20.6199965,20.65 21.32,20.65 C22.2200045,20.65 23.0449962,20.4650018 23.795,20.095 C24.5450037,19.7249981 25.1899973,19.2300031 25.73,18.61 C26.2700027,17.9899969 26.6899985,17.2650041 26.99,16.435 C27.2900015,15.6049958 27.44,14.7200047 27.44,13.78 L27.44,13.78 Z M49.12,7.6 C50.6400076,7.6 51.8249957,7.98499615 52.675,8.755 C53.5250042,9.52500385 53.95,10.5699934 53.95,11.89 C53.95,12.1300012 53.9350002,12.3699988 53.905,12.61 C53.8749998,12.8500012 53.8400002,13.1099986 53.8,13.39 L52.27,22 L50.26,22 L51.64,14.23 C51.7600006,13.6099969 51.82,13.0200028 51.82,12.46 C51.82,11.4799951 51.5900023,10.7050029 51.13,10.135 C50.6699977,9.56499715 49.8600058,9.28 48.7,9.28 C47.9599963,9.28 47.3250026,9.4299985 46.795,9.73 C46.2649973,10.0300015 45.8150018,10.4299975 45.445,10.93 C45.0749981,11.4300025 44.7850011,11.9899969 44.575,12.61 C44.364999,13.2300031 44.2000006,13.8699967 44.08,14.53 L42.76,22 L40.75,22 L42.22,13.84 C42.3400006,13.1799967 42.4,12.5700028 42.4,12.01 C42.4,11.1699958 42.195002,10.5050025 41.785,10.015 C41.3749979,9.52499755 40.6500052,9.28 39.61,9.28 C39.1299976,9.28 38.6300026,9.3899989 38.11,9.61 C37.5899974,9.8300011 37.1000023,10.1699977 36.64,10.63 C36.1799977,11.0900023 35.7700018,11.6649966 35.41,12.355 C35.0499982,13.0450035 34.7900008,13.8599953 34.63,14.8 L33.37,22 L31.36,22 L33.28,11.05 C33.3600004,10.6699981 33.4449996,10.180003 33.535,9.58 C33.6250004,8.979997 33.6899998,8.4400024 33.73,7.96 L35.65,7.96 C35.6099998,8.3400019 35.5600003,8.7599977 35.5,9.22 C35.4399997,9.6800023 35.3800003,10.0599985 35.32,10.36 L35.38,10.36 C35.9600029,9.4999957 36.6599959,8.82500245 37.48,8.335 C38.3000041,7.84499755 39.2199949,7.6 40.24,7.6 C40.6200019,7.6 41.014998,7.6399996 41.425,7.72 C41.8350021,7.8000004 42.2249982,7.95499885 42.595,8.185 C42.9650018,8.41500115 43.2899986,8.7199981 43.57,9.1 C43.8500014,9.4800019 44.0499994,9.969997 44.17,10.57 C44.7100027,9.6099952 45.3999958,8.87500255 46.24,8.365 C47.0800042,7.85499745 48.0399946,7.6 49.12,7.6 L49.12,7.6 Z M60.51,10.24 C60.7300011,9.8799982 61.0199982,9.5400016 61.38,9.22 C61.7400018,8.8999984 62.1449977,8.6200012 62.595,8.38 C63.0450022,8.1399988 63.5299974,7.9500007 64.05,7.81 C64.5700026,7.6699993 65.1099972,7.6 65.67,7.6 C66.6300048,7.6 67.4949961,7.74499855 68.265,8.035 C69.0350038,8.32500145 69.6999972,8.7399973 70.26,9.28 C70.8200028,9.8200027 71.2499985,10.4599963 71.55,11.2 C71.8500015,11.9400037 72,12.7599955 72,13.66 C72,14.860006 71.7900021,15.9899947 71.37,17.05 C70.9499979,18.1100053 70.3750036,19.0299961 69.645,19.81 C68.9149963,20.5900039 68.045005,21.2099977 67.035,21.67 C66.0249949,22.1300023 64.9300059,22.36 63.75,22.36 C62.7299949,22.36 61.7750044,22.1300023 60.885,21.67 C59.9949955,21.2099977 59.3200023,20.5300045 58.86,19.63 L58.8,19.63 L57.09,29.2 L55.08,29.2 L58.86,7.96 L60.87,7.96 L60.45,10.24 L60.51,10.24 Z M69.9,13.78 C69.9,13.1599969 69.8050009,12.5750027 69.615,12.025 C69.424999,11.4749972 69.1400019,10.995002 68.76,10.585 C68.3799981,10.1749979 67.9200027,9.85500115 67.38,9.625 C66.8399973,9.39499885 66.2100036,9.28 65.49,9.28 C64.6099956,9.28 63.7900038,9.4599982 63.03,9.82 C62.2699962,10.1800018 61.6100028,10.6749968 61.05,11.305 C60.4899972,11.9350031 60.0500016,12.6649958 59.73,13.495 C59.4099984,14.3250041 59.25,15.1999954 59.25,16.12 C59.25,16.7800033 59.3549989,17.3849972 59.565,17.935 C59.7750011,18.4850027 60.079998,18.9649979 60.48,19.375 C60.880002,19.785002 61.3549972,20.0999989 61.905,20.32 C62.4550028,20.5400011 63.0799965,20.65 63.78,20.65 C64.7000046,20.65 65.5349963,20.4700018 66.285,20.11 C67.0350037,19.7499982 67.6799973,19.2600031 68.22,18.64 C68.7600027,18.0199969 69.1749985,17.2950041 69.465,16.465 C69.7550015,15.6349958 69.9,14.7400048 69.9,13.78 L69.9,13.78 Z M84.23,13.39 C84.2900003,13.0499983 84.3299999,12.785001 84.35,12.595 C84.3700001,12.4049991 84.38,12.2300008 84.38,12.07 C84.38,11.0499949 84.0900029,10.3300021 83.51,9.91 C82.9299971,9.4899979 82.1200052,9.28 81.08,9.28 C80.2399958,9.28 79.4300039,9.44499835 78.65,9.775 C77.8699961,10.1050017 77.2200026,10.4999977 76.7,10.96 L75.8,9.61 C76.4800034,9.009997 77.319995,8.52500185 78.32,8.155 C79.320005,7.78499815 80.3099951,7.6 81.29,7.6 C81.9500033,7.6 82.5849969,7.67499925 83.195,7.825 C83.805003,7.97500075 84.3349977,8.21499835 84.785,8.545 C85.2350022,8.87500165 85.5949986,9.29499745 85.865,9.805 C86.1350013,10.3150026 86.27,10.9299964 86.27,11.65 C86.27,11.8300009 86.2600001,12.0749985 86.24,12.385 C86.2199999,12.6950016 86.1900002,12.949999 86.15,13.15 L85.13,18.85 C85.0299995,19.3900027 84.9500003,19.9499971 84.89,20.53 C84.8299997,21.1100029 84.8,21.599998 84.8,22 L83,22 C83,21.6599983 83.0149998,21.290002 83.045,20.89 C83.0750001,20.489998 83.1199997,20.1000019 83.18,19.72 L83.12,19.72 C82.719998,20.1800023 82.320002,20.5749984 81.92,20.905 C81.519998,21.2350017 81.1050021,21.499999 80.675,21.7 C80.2449978,21.900001 79.7850024,22.0449996 79.295,22.135 C78.8049975,22.2250005 78.2700029,22.27 77.69,22.27 C77.2099976,22.27 76.7200025,22.2100006 76.22,22.09 C75.7199975,21.9699994 75.265002,21.7650015 74.855,21.475 C74.4449979,21.1849986 74.1050013,20.8100023 73.835,20.35 C73.5649986,19.8899977 73.43,19.3200034 73.43,18.64 C73.43,17.5199944 73.7499968,16.6150035 74.39,15.925 C75.0300032,15.2349966 75.8649948,14.7050019 76.895,14.335 C77.9250051,13.9649982 79.0799936,13.7150007 80.36,13.585 C81.6400064,13.4549994 82.9299935,13.39 84.23,13.39 L84.23,13.39 Z M83.48,14.92 C82.5799955,14.92 81.6600047,14.9649996 80.72,15.055 C79.7799953,15.1450005 78.9250038,15.3149988 78.155,15.565 C77.3849961,15.8150013 76.7550024,16.1649978 76.265,16.615 C75.7749975,17.0650023 75.53,17.6599963 75.53,18.4 C75.53,18.8400022 75.6099992,19.2049986 75.77,19.495 C75.9300008,19.7850015 76.1449986,20.0149992 76.415,20.185 C76.6850013,20.3550009 76.9949982,20.4749997 77.345,20.545 C77.6950017,20.6150004 78.0499982,20.65 78.41,20.65 C79.1300036,20.65 79.789997,20.5300012 80.39,20.29 C80.990003,20.0499988 81.5199977,19.7200021 81.98,19.3 C82.4400023,18.8799979 82.8199985,18.3950028 83.12,17.845 C83.4200015,17.2949973 83.6299994,16.7100031 83.75,16.09 L83.96,14.92 L83.48,14.92 Z M92.86,7.96 C92.8199998,8.3400019 92.7700003,8.7599977 92.71,9.22 C92.6499997,9.6800023 92.5900003,10.0599985 92.53,10.36 L92.59,10.36 C93.1300027,9.4999957 93.8249957,8.82500245 94.675,8.335 C95.5250042,7.84499755 96.4299952,7.6 97.39,7.6 C98.9100076,7.6 100.094996,7.98499615 100.945,8.755 C101.795004,9.52500385 102.22,10.5699934 102.22,11.89 C102.22,12.1300012 102.205,12.3699988 102.175,12.61 C102.145,12.8500012 102.11,13.1099986 102.07,13.39 L100.54,22 L98.53,22 L99.91,14.23 C100.030001,13.6099969 100.09,13.0200028 100.09,12.46 C100.09,11.4799951 99.8600023,10.7050029 99.4,10.135 C98.9399977,9.56499715 98.1300058,9.28 96.97,9.28 C96.4299973,9.28 95.8900027,9.3899989 95.35,9.61 C94.8099973,9.8300011 94.3050023,10.1699977 93.835,10.63 C93.3649976,11.0900023 92.9500018,11.6649966 92.59,12.355 C92.2299982,13.0450035 91.9700008,13.8599953 91.81,14.8 L90.55,22 L88.54,22 L90.46,11.05 C90.5400004,10.6699981 90.6249995,10.180003 90.715,9.58 C90.8050004,8.979997 90.8699998,8.4400024 90.91,7.96 L92.86,7.96 Z M109.14,19.78 L109.2,19.78 L116.04,7.96 L118.29,7.96 L107.67,25.63 C107.009997,26.7100054 106.330003,27.5749968 105.63,28.225 C104.929996,28.8750033 104.060005,29.2 103.02,29.2 C102.439997,29.2 101.870003,29.1400006 101.31,29.02 L101.61,27.16 C102.050002,27.3200008 102.489998,27.4 102.93,27.4 C103.570003,27.4 104.124998,27.1850022 104.595,26.755 C105.065002,26.3249979 105.529998,25.710004 105.99,24.91 L107.73,21.97 L104.79,7.96 L106.89,7.96 L109.14,19.78 Z"/>
    <path fill="#FF6701" d="M117.54,22 L121.29,0.76 L126.3,0.76 L123.3,17.65 L131.64,17.65 L130.86,22 L117.54,22 Z M139.1,22.42 C138.019995,22.42 137.015005,22.2700015 136.085,21.97 C135.154995,21.6699985 134.355003,21.2350029 133.685,20.665 C133.014997,20.0949972 132.485002,19.4050041 132.095,18.595 C131.704998,17.7849959 131.51,16.8700051 131.51,15.85 C131.51,14.6099938 131.719998,13.4300056 132.14,12.31 C132.560002,11.1899944 133.164996,10.2100042 133.955,9.37 C134.745004,8.5299958 135.699994,7.8600025 136.82,7.36 C137.940006,6.8599975 139.209993,6.61 140.63,6.61 C141.730006,6.61 142.749995,6.7599985 143.69,7.06 C144.630005,7.3600015 145.439997,7.79499715 146.12,8.365 C146.800003,8.93500285 147.334998,9.62499595 147.725,10.435 C148.115002,11.2450041 148.31,12.1599949 148.31,13.18 C148.31,14.4400063 148.100002,15.6299944 147.68,16.75 C147.259998,17.8700056 146.650004,18.8499958 145.85,19.69 C145.049996,20.5300042 144.085006,21.1949976 142.955,21.685 C141.824994,22.1750024 140.540007,22.42 139.1,22.42 L139.1,22.42 Z M143.57,13.69 C143.57,12.7899955 143.295003,12.040003 142.745,11.44 C142.194997,10.839997 141.420005,10.54 140.42,10.54 C139.779997,10.54 139.200003,10.6699987 138.68,10.93 C138.159997,11.1900013 137.720002,11.5399978 137.36,11.98 C136.999998,12.4200022 136.720001,12.9299971 136.52,13.51 C136.319999,14.0900029 136.22,14.6999968 136.22,15.34 C136.22,16.2400045 136.489997,16.984997 137.03,17.575 C137.570003,18.1650029 138.339995,18.46 139.34,18.46 C139.980003,18.46 140.559997,18.3350012 141.08,18.085 C141.600003,17.8349987 142.044998,17.4900022 142.415,17.05 C142.785002,16.6099978 143.069999,16.1000029 143.27,15.52 C143.470001,14.9399971 143.57,14.3300032 143.57,13.69 L143.57,13.69 Z M162.16,9.04 L162.49,7.06 L167.02,7.06 L164.65,20.62 C164.409999,22.0000069 164.050002,23.2249947 163.57,24.295 C163.089998,25.3650054 162.470004,26.2599964 161.71,26.98 C160.949996,27.7000036 160.020006,28.2499981 158.92,28.63 C157.819995,29.0100019 156.540007,29.2 155.08,29.2 C154.419997,29.2 153.745004,29.1450006 153.055,29.035 C152.364997,28.9249995 151.690003,28.7650011 151.03,28.555 C150.369997,28.344999 149.745003,28.0850016 149.155,27.775 C148.564997,27.4649985 148.060002,27.1000021 147.64,26.68 L150.34,23.29 C150.920003,23.9300032 151.634996,24.4249983 152.485,24.775 C153.335004,25.1250018 154.189996,25.3 155.05,25.3 C155.850004,25.3 156.524997,25.1950011 157.075,24.985 C157.625003,24.774999 158.089998,24.4800019 158.47,24.1 C158.850002,23.7199981 159.149999,23.2800025 159.37,22.78 C159.590001,22.2799975 159.759999,21.730003 159.88,21.13 L160.09,20.14 L160,20.14 C159.579998,20.6800027 158.965004,21.149998 158.155,21.55 C157.344996,21.950002 156.430005,22.15 155.41,22.15 C154.409995,22.15 153.520004,21.9950016 152.74,21.685 C151.959996,21.3749985 151.300003,20.9450028 150.76,20.395 C150.219997,19.8449973 149.810001,19.1900038 149.53,18.43 C149.249999,17.6699962 149.11,16.8300046 149.11,15.91 C149.11,14.6299936 149.314998,13.4300056 149.725,12.31 C150.135002,11.1899944 150.704996,10.2100042 151.435,9.37 C152.165004,8.5299958 153.034995,7.8700024 154.045,7.39 C155.055005,6.9099976 156.169994,6.67 157.39,6.67 C158.470005,6.67 159.414996,6.87499795 160.225,7.285 C161.035004,7.69500205 161.649998,8.2799962 162.07,9.04 L162.16,9.04 Z M153.85,15.31 C153.85,15.7300021 153.909999,16.1299981 154.03,16.51 C154.150001,16.8900019 154.339999,17.2249986 154.6,17.515 C154.860001,17.8050014 155.179998,18.0349992 155.56,18.205 C155.940002,18.3750008 156.399997,18.46 156.94,18.46 C157.560003,18.46 158.134997,18.3300013 158.665,18.07 C159.195003,17.8099987 159.649998,17.4550023 160.03,17.005 C160.410002,16.5549977 160.704999,16.0450029 160.915,15.475 C161.125001,14.9049971 161.23,14.3000032 161.23,13.66 C161.23,12.6999952 160.945003,11.9350028 160.375,11.365 C159.804997,10.7949972 159.040005,10.51 158.08,10.51 C157.419997,10.51 156.830003,10.6399987 156.31,10.9 C155.789997,11.1600013 155.350002,11.5099978 154.99,11.95 C154.629998,12.3900022 154.350001,12.8999971 154.15,13.48 C153.949999,14.0600029 153.85,14.6699968 153.85,15.31 L153.85,15.31 Z M174.96,22.42 C173.879995,22.42 172.875005,22.2700015 171.945,21.97 C171.014995,21.6699985 170.215003,21.2350029 169.545,20.665 C168.874997,20.0949972 168.345002,19.4050041 167.955,18.595 C167.564998,17.7849959 167.37,16.8700051 167.37,15.85 C167.37,14.6099938 167.579998,13.4300056 168,12.31 C168.420002,11.1899944 169.024996,10.2100042 169.815,9.37 C170.605004,8.5299958 171.559995,7.8600025 172.68,7.36 C173.800006,6.8599975 175.069993,6.61 176.49,6.61 C177.590006,6.61 178.609995,6.7599985 179.55,7.06 C180.490005,7.3600015 181.299997,7.79499715 181.98,8.365 C182.660004,8.93500285 183.194998,9.62499595 183.585,10.435 C183.975002,11.2450041 184.17,12.1599949 184.17,13.18 C184.17,14.4400063 183.960002,15.6299944 183.54,16.75 C183.119998,17.8700056 182.510004,18.8499958 181.71,19.69 C180.909996,20.5300042 179.945006,21.1949976 178.815,21.685 C177.684994,22.1750024 176.400007,22.42 174.96,22.42 L174.96,22.42 Z M179.43,13.69 C179.43,12.7899955 179.155003,12.040003 178.605,11.44 C178.054997,10.839997 177.280005,10.54 176.28,10.54 C175.639997,10.54 175.060003,10.6699987 174.54,10.93 C174.019998,11.1900013 173.580002,11.5399978 173.22,11.98 C172.859998,12.4200022 172.580001,12.9299971 172.38,13.51 C172.179999,14.0900029 172.08,14.6999968 172.08,15.34 C172.08,16.2400045 172.349997,16.984997 172.89,17.575 C173.430003,18.1650029 174.199995,18.46 175.2,18.46 C175.840003,18.46 176.419998,18.3350012 176.94,18.085 C177.460003,17.8349987 177.904998,17.4900022 178.275,17.05 C178.645002,16.6099978 178.929999,16.1000029 179.13,15.52 C179.330001,14.9399971 179.43,14.3300032 179.43,13.69 L179.43,13.69 Z"/>
  </g>
</svg>
